<svg xmlns="http://www.w3.org/2000/svg" viewBox="0 0 545 619" width="545" height="619">
  <g transform="translate(44.5,194)">
  <g transform="translate(-0.04098,230.939617) scale(0.1,-0.1)" fill="#FFFFFF" stroke="none">
    <path d="M958 2294 c-483 -87 -865 -475 -943 -959 -57 -351 59 -719 307 -976
178 -183 398 -301 644 -344 131 -23 2508 -22 2640 0 409 71 762 367 895 751
50 143 59 203 59 389 0 186 -9 246 -59 389 -111 320 -382 589 -706 701 -196
67 -144 65 -1519 64 -1012 -1 -1255 -3 -1318 -15z m301 -377 c77 -28 128 -86
197 -219 49 -97 71 -127 159 -218 202 -210 274 -292 330 -376 59 -88 154 -281
177 -356 7 -25 33 -64 65 -99 29 -31 53 -61 53 -66 0 -5 16 -24 35 -43 25 -24
31 -36 22 -42 -20 -13 -61 -9 -84 7 -14 10 -24 12 -28 5 -4 -6 -15 -8 -26 -5
-10 4 -19 2 -19 -4 0 -24 -68 11 -110 58 -35 38 -65 58 -129 85 -45 20 -85 36
-87 36 -2 0 -4 -17 -4 -37 0 -20 -9 -56 -21 -80 -35 -71 -18 -90 82 -92 61 -1
82 -23 39 -41 -23 -9 -40 -10 -74 -1 -50 12 -62 9 -125 -31 -25 -15 -58 -28
-73 -28 -28 0 -28 0 -13 30 8 16 23 34 32 39 36 21 -16 12 -58 -10 -34 -17
-46 -19 -69 -9 -15 6 -40 8 -56 5 -28 -6 -28 -6 -10 9 11 9 29 16 40 17 21 0
21 1 1 9 -35 15 -71 11 -131 -16 -50 -22 -61 -24 -82 -12 -21 11 -26 10 -37
-6 -13 -17 -14 -16 -17 5 -4 32 -33 47 -58 31 -16 -10 -20 -10 -20 2 0 18 25
38 66 52 25 9 53 9 110 1 78 -12 97 -7 118 26 7 11 6 30 -6 64 -9 26 -20 78
-24 116 -6 65 -8 68 -56 108 -58 49 -130 147 -158 215 -11 27 -38 128 -59 225
-22 100 -51 200 -66 231 l-27 55 -48 -5 c-32 -3 -59 1 -80 12 -39 19 -47 15
-58 -27 l-8 -32 -18 27 c-22 33 -23 125 -3 165 9 15 30 42 47 58 18 17 40 48
50 70 50 114 167 148 319 92z m2385 -88 c173 -65 275 -243 245 -427 -16 -106
-56 -170 -192 -308 -99 -100 -134 -129 -188 -154 -57 -26 -69 -37 -85 -73 -12
-26 -70 -94 -154 -179 -148 -149 -191 -177 -307 -198 -123 -22 -256 21 -343
110 -62 64 -87 112 -106 201 -17 84 -8 162 31 247 38 82 266 311 353 354 53
26 65 38 82 75 25 56 267 302 329 333 101 51 232 58 335 19z"/>
    <path d="M1597 683 c-3 -10 -8 -32 -12 -50 -8 -38 -41 -83 -61 -83 -17 0 -19
-40 -1 -41 6 -1 24 0 39 1 18 1 30 -5 37 -19 9 -17 16 -18 43 -10 18 5 41 18
52 29 20 20 20 20 -11 52 -18 18 -43 57 -56 86 -19 40 -26 49 -30 35z"/>
    <path d="M3428 1673 c-36 -14 -78 -48 -172 -140 -113 -110 -127 -127 -141
-177 -23 -79 -8 -148 45 -209 22 -24 53 -50 70 -57 16 -7 30 -20 30 -29 0 -34
-22 -92 -43 -117 l-23 -26 -50 26 c-96 50 -170 140 -195 236 l-13 51 -109
-108 c-59 -59 -115 -120 -122 -134 -59 -110 -22 -245 84 -307 65 -38 157 -38
221 -1 60 36 247 229 267 276 44 104 -2 238 -99 289 -24 12 -28 21 -28 55 0
40 35 119 52 119 28 0 113 -57 160 -109 53 -57 98 -144 98 -189 0 -22 216 192
239 238 27 52 33 100 18 156 -34 130 -167 202 -289 157z"/>
  </g>
  </g>
</svg>
