<svg xmlns="http://www.w3.org/2000/svg" width="512" height="512" viewBox="0 0 1024 1024"><path fill="#FFFFFF" stroke="#FFFFFF" stroke-width="28" stroke-linejoin="round" d="M762 170.1c-7.7 1.1-14.2 3.4-23.3 8.2-18.1 9.6-31.4 26.7-36.6 47.4-2.9 11.1-2.9 26.1 0 36.3 2.7 10 9.8 23.4 16 30.3l5.1 5.7-4.8 6.2c-9.7 12.8-76.3 101.7-85.2 113.8-5 6.9-10.2 13.8-11.4 15.3l-2.3 2.8-8.5-3.4c-18-7.3-33.4-8.4-49.9-3.7-4 1.1-7.5 1.9-7.6 1.8-.2-.2-5.8-10-12.5-21.8-10.8-19-20.6-35.8-32.3-55.5l-3.5-6 3.7-4c8.2-8.9 14.4-20.4 17.7-32.6 2.4-9.3 2.2-27-.5-37.3-9.6-36.3-46.5-60.1-83.9-54.1-28.2 4.6-51 24.2-59.8 51.5-2.4 7.4-2.7 10.1-2.8 21.5 0 10.6.4 14.5 2.2 20.8 7.9 27.6 29.1 47.3 57.4 53.2 14 3 29.1 1.3 44.8-5.1 4.6-1.9 8.7-3.1 9.1-2.6.7.7 28.3 48.7 40.7 70.5l5.5 9.7-2.9 2.2c-5.5 4.1-14.4 13.7-18.3 19.8-6.3 9.7-11 23.7-11.1 32.7 0 4.2 0 4.2-4.2 4.7-4.1.6-18.5 1.6-102.3 7.1-20.9 1.4-47 3.2-58 4s-21 1.5-22.2 1.5c-1.7 0-2.3-.9-3.3-5.3-2.9-12.2-9.2-23.8-18.3-33.5-22.9-24.1-58.2-30.1-88.7-15-6.9 3.4-10.3 6.1-18.1 13.8-8.3 8.3-10.2 10.8-14.2 19-2.5 5.2-5.3 12.6-6.1 16.3-2.3 9.8-2.1 26.5.4 36.1 6.5 25.7 28.2 47.2 53.8 53.4 25.3 6.2 51.1-.2 69.1-17.3 13.2-12.5 20.1-25.1 22.8-41.4l1.6-9.9 10.6-.6c18.7-1.2 53.4-3.6 66.7-4.6 26.1-2 102-7 106.4-7h4.6l2.7 8.9c3.7 11.6 9.9 22 18.2 30.3l6.7 6.7-9.4 16.3c-5.2 9-12.8 22.1-16.8 29.3-12.6 22.4-34.9 61-36.2 62.7-1.1 1.3-2.4 1.4-8.6.7-14.8-1.6-31.6 2.2-45.2 10.3-10.4 6.2-22.8 19.4-28 29.7-6.2 12.3-8.3 22.9-7.7 37.6.6 15.7 3.5 24.7 11.6 37.1 20.7 31.4 61.5 42.5 95.5 26 17.2-8.4 31.6-25.5 37.8-45 2.8-8.9 3.6-28.9 1.4-37.6-5.8-22.9-17.3-37.7-40.1-51.5-1.5-.9.6-5 17.2-33.5 10.4-17.9 23.7-41.1 29.6-51.5 5.8-10.5 11.2-19.8 11.9-20.7 1.2-1.7 1.7-1.6 8.8.6 20.8 6.6 41.4 5.2 59.2-4.1 3.6-1.9 8.4-5 10.6-6.9s4.3-3.4 4.7-3.4c.9 0 3 2.3 55.8 59.4l39.6 42.9-4 4.6c-5.9 6.6-11.7 16.9-14.7 25.8-2.4 7.1-2.6 9.2-2.6 22.8 0 14.1.2 15.5 3.1 23.7 1.7 4.8 4.6 11.3 6.4 14.4 7.8 12.9 23.6 26.5 36.6 31.4 22.5 8.4 49.5 5.8 68.3-6.7 16.8-11.1 28.9-29.1 32.6-48.1 7.6-39.6-18.4-79.7-56.9-87.6-16-3.3-34.5-1.2-48.1 5.4l-7.9 3.9-9.6-10.2c-11.2-11.8-25.7-27.5-53.6-58-11-12.1-23.1-25.2-26.8-29.3l-6.9-7.4 4.6-9.3c6.6-13.4 8-19.2 8-32.7 0-19.3-6.3-36.8-17.8-49.6l-5.3-5.9 12.7-17c7-9.4 30.1-40.3 51.3-68.8 21.3-28.4 39.3-51.7 40.1-51.7s3.7 1.1 6.5 2.5c14 7.1 36 9.1 51.4 4.7 32.7-9.3 54.7-38.5 54.7-72.6 0-12.3-2.2-21.5-8.1-33.5-4.2-8.5-6.5-11.8-12.8-18.1-17.9-18.1-40.8-25.7-66.1-21.9m27.3 17.5c18.9 4.9 34.2 19.2 40.8 38.4 1.8 5.2 2.2 8.7 2.3 18 0 10.2-.4 12.4-2.8 19-7.2 19-22.3 32.7-41.6 37.6-8.7 2.2-24.1 1.5-32.6-1.5-25.9-9.1-42.5-36.3-38.6-63.1 3.3-23.1 19.5-41.7 41.7-48.1 7.8-2.3 22.7-2.4 30.8-.3M472.8 238c23.6 8.3 39.2 30.4 39.2 55.5 0 15.7-5.4 28.8-16.5 40.1-7.9 8-13.1 11.3-23.1 14.8-31.1 10.9-65.2-7.3-75-40-2.6-8.6-2.3-23.8.6-32.4 6.4-19.1 22.1-34.1 41.1-39.5 7.9-2.2 25.4-1.4 33.7 1.5m128.7 208.4c9.5 3.6 15.3 7.6 22.4 15.2 25 26.7 18.7 70.9-12.8 89.4-10.8 6.3-19.2 8.3-32.4 7.8-13.3-.6-21.4-3.3-31.2-10.2-23.9-17.1-31.3-47.2-18.4-74.3 5.9-12.3 20.5-24.5 35.1-29.2 10.5-3.4 26.2-2.8 37.3 1.3m-338.4 22c3.8 1.3 9 3.6 11.6 5.2 6.9 4 16.4 13.9 20.5 21.4 5.9 10.8 7.2 16 7.2 29 0 10.6-.3 12.2-3.3 19.7-8.8 22.4-27.5 36.4-50.8 38-10.6.8-18.6-.8-29.2-5.8-15.4-7.2-27.6-22.4-31.6-39.2-3.1-13-1.6-25.4 4.5-38.2 8.2-17 24.6-29.6 42.5-32.6 8-1.3 21-.1 28.6 2.5m528.1 187.1c14 2.9 27.1 11.4 35.3 23 21.2 29.6 10.9 70.2-21.8 86.2-8.6 4.2-15.7 5.8-26.3 5.7-24.8-.2-46-15.9-54.5-40.4-3.2-9.3-3.3-24.8-.1-34.7 4.3-13.8 15.7-27.6 28.3-34.3 12.1-6.4 25.5-8.3 39.1-5.5m-322 31.6c18.9 3.9 36.4 19.6 43 38.7 1.9 5.5 2.3 8.8 2.3 18.2 0 9.8-.4 12.5-2.6 18.6-13 35.8-55.5 50.6-86.1 29.9-8.4-5.6-13-10.2-17.9-17.7-6.3-9.8-8.4-17.4-8.4-30.8 0-12.7 1.3-18.2 6.8-28 7.8-14.3 21.4-24.7 37.2-28.5 6.4-1.6 18.9-1.8 25.7-.4"/></svg>