<svg viewBox="0 0 24 24" fill="none" xmlns="http://www.w3.org/2000/svg">
        <path fillRule="evenodd" clipRule="evenodd" d="M12 2C6.477 2 2 6.484 2 12.017C2 16.442 4.866 20.197 8.841 21.53C9.341 21.622 9.522 21.312 9.522 21.043C9.522 20.803 9.514 19.986 9.509 19.143C6.727 19.753 6.14 17.786 6.14 17.786C5.685 16.618 5.029 16.307 5.029 16.307C4.12 15.681 5.097 15.694 5.097 15.694C6.1 15.766 6.629 16.737 6.629 16.737C7.521 18.28 8.966 17.833 9.537 17.575C9.628 16.92 9.887 16.475 10.174 16.222C7.953 15.967 5.617 15.097 5.617 11.226C5.617 10.123 6.005 9.222 6.64 8.517C6.539 8.261 6.196 7.233 6.737 5.845C6.737 5.845 7.575 5.574 9.48 6.874C10.278 6.651 11.133 6.539 11.983 6.535C12.833 6.539 13.688 6.651 14.488 6.874C16.391 5.574 17.226 5.845 17.226 5.845C17.77 7.233 17.426 8.261 17.327 8.517C17.964 9.222 18.35 10.123 18.35 11.226C18.35 15.108 16.01 15.964 13.78 16.214C14.139 16.527 14.46 17.143 14.46 18.087C14.46 19.434 14.448 20.523 14.448 20.852C14.448 21.124 14.627 21.439 15.138 21.529C19.11 20.192 22 16.441 22 12.017C22 6.484 17.522 2 12 2Z" fill="white"/>
    </svg>