<svg viewBox="0 0 24 24" fill="none" xmlns="http://www.w3.org/2000/svg">
        <path d="M12 2C6.48 2 2 3.34 2 5V19C2 20.66 6.48 22 12 22C17.52 22 22 20.66 22 19V5C22 3.34 17.52 2 12 2Z" fill="#F29111"/>
        <path d="M22 8.5C22 9.66 17.52 10.6 12 10.6C6.48 10.6 2 9.66 2 8.5V12C2 13.66 6.48 15 12 15C17.52 15 22 13.66 22 12V8.5Z" fill="#E37A08"/>
        <path d="M22 14.5C22 15.66 17.52 16.6 12 16.6C6.48 16.6 2 15.66 2 14.5V18C2 19.66 6.48 21 12 21C17.52 21 22 19.66 22 18V14.5Z" fill="#B35F00"/>
        <text x="12" y="14" fill="#FFFFFF" fontSize="6.5" fontWeight="bold" fontFamily="sans-serif" textAnchor="middle">SQL</text>
    </svg>